{"title":"I Don't Know How She  2011 R5 XviD AC3-DIDyourMUM","uid":6753728,"size":581977532,"categoryP":"video","categoryS":"movies","magnet":"?xt=urn:btih:ad285802d46239b8f5767800a9484e6a27536e4f&amp;dn=I+Don%5C%27t+Know+How+She++2011+R5+XviD+AC3-DIDyourMUM&amp;tr=udp%3A%2F%2Ftracker.openbittorrent.com%3A80&amp;tr=udp%3A%2F%2Fopen.demonii.com%3A1337&amp;tr=udp%3A%2F%2Ftracker.coppersurfer.tk%3A6969&amp;tr=udp%3A%2F%2Fexodus.desync.com%3A6969","seeders":0,"leechers":0,"uploader":"sceneline","files":43,"time":1318962998,"description":"- &lt;a href=&quot;\nhttp://www.Speed.Cd&quot; rel=&quot;nofollow&quot; target=&quot;_NEW&quot;&gt;\nhttp://www.Speed.Cd&lt;/a&gt;      fast  and The Hottest Private Tracker on the net\n\nPlease Seed back to make the speed Faster!!!\n\n------------------nfo--------------------------\n-I Don't Know How She Does It 2011 R5 XviD AC3-DIDyourMUM\n\nFormat                           : AVI\nFormat/Info                      : Audio Video Interleave\nFile size                        : 557 MiB\nDuration                         : 1h 25mn\nOverall bit rate                 : 907 Kbps\n\n\nVideo\nID                               : 0\nFormat                           : MPEG-4 Visual\nFormat profile                   : Advanced Simple@L5\nFormat settings, BVOP            : 2\nFormat settings, QPel            : No\nFormat settings, GMC             : No warppoints\nFormat settings, Matrix          : Default (H.263)\nMuxing mode                      : Packed bitstream\nCodec ID                         : XVID\nCodec ID/Hint                    : XviD\nDuration                         : 1h 25mn\nBit rate                         : 449 Kbps\nWidth                            : 720 pixels\nHeight                           : 384 pixels\nDisplay aspect ratio             : 1.875\nFrame rate                       : 25.000 fps\nColor space                      : YUV\nChroma subsampling               : 4:2:0\nBit depth                        : 8 bits\nScan type                        : Progressive\nCompression mode                 : Lossy\nBits/(Pixel*Frame)               : 0.065\nStream size                      : 276 MiB (50%)\nWriting library                  : XviD 64\n\nAudio\nID                               : 1\nFormat                           : AC-3\nFormat/Info                      : Audio Coding 3\nMode extension                   : CM (complete main)\nCodec ID                         : 2000\nDuration                         : 1h 25mn\nBit rate mode                    : Constant\nBit rate                         : 448 Kbps\nChannel(s)                       : 6 channels\nChannel positions                : Front: L C R, Side: L R, LFE\nSampling rate                    : 48.0 KHz\nBit depth                        : 16 bits\nCompression mode                 : Lossy\nStream size                      : 275 MiB (49%)\nAlignment                        : Aligned on interleaves\nInterleave, duration             : 40 ms (1.00 video frame)\nInterleave, preload duration     : 512 ms\n\n\n\n\n\nSOURCES THANKED:\nAUDIO: rus dvdr thanks\nVIDEO: rus dvdr thanks\n &lt;a href=&quot;\nhttp://www.imdb.com/title/tt1622547/&quot; rel=&quot;nofollow&quot; target=&quot;_NEW&quot;&gt;\nhttp://www.imdb.com/title/tt1622547/&lt;/a&gt;\n\nWORKDONE:\n\nDIDyourMUM enjoy i did later all time for 2nds :lol:\n\npics stuff that theres sample thats what it there for no photo shop pics here","torrent":{"xt":"urn:btih:ad285802d46239b8f5767800a9484e6a27536e4f","amp;dn":"I+Don%5C%27t+Know+How+She++2011+R5+XviD+AC3-DIDyourMUM","amp;tr":["udp%3A%2F%2Ftracker.openbittorrent.com%3A80","udp%3A%2F%2Fopen.demonii.com%3A1337","udp%3A%2F%2Ftracker.coppersurfer.tk%3A6969","udp%3A%2F%2Fexodus.desync.com%3A6969"],"infoHash":"ad285802d46239b8f5767800a9484e6a27536e4f","infoHashBuffer":{"type":"Buffer","data":[173,40,88,2,212,98,57,184,245,118,120,0,169,72,78,106,39,83,110,79]},"announce":[],"urlList":[]}}